HIERARCHY
ROOT hip
{
  OFFSET -139.282 80.2385 49.8602
  CHANNELS 6 Xposition Yposition Zposition Zrotation Xrotation Yrotation
  JOINT abdomen
  {
    OFFSET 0 20.6881 -0.73152
    CHANNELS 3 Zrotation Xrotation Yrotation
    JOINT chest
    {
      OFFSET 0 11.7043 -0.48768
      CHANNELS 3 Zrotation Xrotation Yrotation
      JOINT neck
      {
        OFFSET 0 22.1894 -2.19456
        CHANNELS 3 Zrotation Xrotation Yrotation
        JOINT head
        {
          OFFSET -0.24384 7.07133 1.2192
          CHANNELS 3 Zrotation Xrotation Yrotation
          JOINT leftEye
          {
            OFFSET 4.14528 8.04674 8.04672
            CHANNELS 3 Zrotation Xrotation Yrotation
            End Site
            {
              OFFSET 1 0 0
            }
          }
          JOINT rightEye
          {
            OFFSET -3.6576 8.04674 8.04672
            CHANNELS 3 Zrotation Xrotation Yrotation
            End Site
            {
              OFFSET 1 0 0
            }
          }
        }
      }
      JOINT rCollar
      {
        OFFSET -2.68224 19.2634 -4.8768
        CHANNELS 3 Zrotation Xrotation Yrotation
        JOINT rShldr
        {
          OFFSET -8.77824 -1.95073 1.46304
          CHANNELS 3 Zrotation Xrotation Yrotation
          JOINT rForeArm
          {
            OFFSET -28.1742 -1.7115 0.48768
            CHANNELS 3 Zrotation Xrotation Yrotation
            JOINT rHand
            {
              OFFSET -22.5879 0.773209 7.07136
              CHANNELS 3 Zrotation Xrotation Yrotation
              JOINT rThumb1
              {
                OFFSET -1.2192 -0.487915 3.41376
                CHANNELS 3 Zrotation Xrotation Yrotation
                JOINT rThumb2
                {
                  OFFSET -3.37035 -0.52449 3.41376
                  CHANNELS 3 Zrotation Xrotation Yrotation
                  End Site
                  {
                    OFFSET -1.78271 -1.18214 1.43049
                  }
                }
              }
              JOINT rIndex1
              {
                OFFSET -7.75947 0.938293 5.60832
                CHANNELS 3 Zrotation Xrotation Yrotation
                JOINT rIndex2
                {
                  OFFSET -2.54057 -0.884171 1.56538
                  CHANNELS 3 Zrotation Xrotation Yrotation
                  End Site
                  {
                    OFFSET -1.62519 -0.234802 1.16502
                  }
                }
              }
              JOINT rMid1
              {
                OFFSET -8.24714 1.18213 3.41376
                CHANNELS 3 Zrotation Xrotation Yrotation
                JOINT rMid2
                {
                  OFFSET -3.10165 -0.590103 1.0647
                  CHANNELS 3 Zrotation Xrotation Yrotation
                  End Site
                  {
                    OFFSET -2.48547 -0.328903 0.83742
                  }
                }
              }
              JOINT rRing1
              {
                OFFSET -8.82822 0.546677 1.51678
                CHANNELS 3 Zrotation Xrotation Yrotation
                JOINT rRing2
                {
                  OFFSET -2.60934 -0.819778 -0.0198488
                  CHANNELS 3 Zrotation Xrotation Yrotation
                  End Site
                  {
                    OFFSET -2.33842 -0.294052 0.168128
                  }
                }
              }
              JOINT rPinky1
              {
                OFFSET -8.27202 -0.0477905 -0.4584
                CHANNELS 3 Zrotation Xrotation Yrotation
                JOINT rPinky2
                {
                  OFFSET -1.82734 -0.647385 -0.700984
                  CHANNELS 3 Zrotation Xrotation Yrotation
                  End Site
                  {
                    OFFSET -1.69225 -0.51767 -0.607171
                  }
                }
              }
            }
          }
        }
      }
      JOINT lCollar
      {
        OFFSET 2.68224 19.2634 -4.8768
        CHANNELS 3 Zrotation Xrotation Yrotation
        JOINT lShldr
        {
          OFFSET 8.77824 -1.95073 1.46304
          CHANNELS 3 Zrotation Xrotation Yrotation
          JOINT lForeArm
          {
            OFFSET 28.1742 -1.7115 0.48768
            CHANNELS 3 Zrotation Xrotation Yrotation
            JOINT lHand
            {
              OFFSET 22.5879 0.773209 7.07136
              CHANNELS 3 Zrotation Xrotation Yrotation
              JOINT lThumb1
              {
                OFFSET 1.2192 -0.487915 3.41376
                CHANNELS 3 Zrotation Xrotation Yrotation
                JOINT lThumb2
                {
                  OFFSET 3.37035 -0.52449 3.41376
                  CHANNELS 3 Zrotation Xrotation Yrotation
                  End Site
                  {
                    OFFSET 1.78271 -1.18214 1.43049
                  }
                }
              }
              JOINT lIndex1
              {
                OFFSET 7.75947 0.938293 5.60832
                CHANNELS 3 Zrotation Xrotation Yrotation
                JOINT lIndex2
                {
                  OFFSET 2.54057 -0.884171 1.56538
                  CHANNELS 3 Zrotation Xrotation Yrotation
                  End Site
                  {
                    OFFSET 1.62519 -0.234802 1.16502
                  }
                }
              }
              JOINT lMid1
              {
                OFFSET 8.24714 1.18213 3.41376
                CHANNELS 3 Zrotation Xrotation Yrotation
                JOINT lMid2
                {
                  OFFSET 3.10165 -0.590103 1.0647
                  CHANNELS 3 Zrotation Xrotation Yrotation
                  End Site
                  {
                    OFFSET 2.48547 -0.328903 0.83742
                  }
                }
              }
              JOINT lRing1
              {
                OFFSET 8.82822 0.546677 1.51678
                CHANNELS 3 Zrotation Xrotation Yrotation
                JOINT lRing2
                {
                  OFFSET 2.60934 -0.819778 -0.0198488
                  CHANNELS 3 Zrotation Xrotation Yrotation
                  End Site
                  {
                    OFFSET 2.33842 -0.294052 0.168128
                  }
                }
              }
              JOINT lPinky1
              {
                OFFSET 8.27202 -0.0477905 -0.4584
                CHANNELS 3 Zrotation Xrotation Yrotation
                JOINT lPinky2
                {
                  OFFSET 1.82734 -0.647385 -0.700984
                  CHANNELS 3 Zrotation Xrotation Yrotation
                  End Site
                  {
                    OFFSET 1.69225 -0.51767 -0.607171
                  }
                }
              }
            }
          }
        }
      }
    }
  }
  JOINT rButtock
  {
    OFFSET -8.77824 4.35084 1.2192
    CHANNELS 3 Zrotation Xrotation Yrotation
    JOINT rThigh
    {
      OFFSET 0 -1.70687 -2.19456
      CHANNELS 3 Zrotation Xrotation Yrotation
      JOINT rShin
      {
        OFFSET 0 -36.8199 0.73152
        CHANNELS 3 Zrotation Xrotation Yrotation
        JOINT rFoot
        {
          OFFSET 0.73152 -45.1104 -5.12064
          CHANNELS 3 Zrotation Xrotation Yrotation
          End Site
          {
            OFFSET -1.1221 -3.69964 12.103
          }
        }
      }
    }
  }
  JOINT lButtock
  {
    OFFSET 8.77824 4.35084 1.2192
    CHANNELS 3 Zrotation Xrotation Yrotation
    JOINT lThigh
    {
      OFFSET 0 -1.70687 -2.19456
      CHANNELS 3 Zrotation Xrotation Yrotation
      JOINT lShin
      {
        OFFSET 0 -36.8199 0.73152
        CHANNELS 3 Zrotation Xrotation Yrotation
        JOINT lFoot
        {
          OFFSET -0.73152 -45.1104 -5.12064
          CHANNELS 3 Zrotation Xrotation Yrotation
          End Site
          {
            OFFSET 1.1221 -3.69964 12.103
          }
        }
      }
    }
  }
}
MOTION
Frames:	6
Frame Time:	0.00833333
70.1399 85.0114 -149.447 -0.0194629 1.35391e-005 0.000335382 0.0256063 -6.19171e-006 0.000728837 0.00706476 8.63147e-006 0.00122381 3.39392e-017 -7.95139e-016 7.76503e-018 1.05604e-016 3.18055e-015 2.32951e-017 -0 0 0 -0 0 0 4.83699e-017 -3.88251e-019 1.98785e-016 2.35698e-015 1.86361e-017 7.95139e-016 9.19379e-015 3.97569e-016 3.18055e-015 7.38609e-014 1.05604e-014 0 1.77524e-013 2.47614e-014 3.18055e-014 2.98177e-013 4.13472e-014 5.80451e-014 1.82087e-013 2.74323e-014 2.22639e-014 7.73091 5.47488 0.417314 1.76869e-013 2.47487e-014 3.49861e-014 2.90554 0.965183 0.102902 1.81416e-013 2.51463e-014 3.65764e-014 10.2786 0.731801 0.0259123 1.73937e-013 2.38542e-014 4.77083e-014 2.22167 -0.733487 -0.20892 -4.83699e-017 -3.88251e-019 -1.98785e-016 -1.56844e-015 -3.78933e-016 -7.95139e-016 5.06901e-015 1.19271e-015 -1.90833e-014 7.49232e-014 -7.35503e-015 4.45278e-014 1.76411e-013 -9.03192e-015 4.13472e-014 3.07719e-013 -1.59028e-014 7.23576e-014 1.72148e-013 -7.95139e-015 4.45278e-014 -7.73091 5.47488 -0.417314 1.76322e-013 -9.1441e-015 3.49861e-014 -2.90554 0.965183 -0.102902 1.70986e-013 -8.84592e-015 3.89618e-014 -10.2786 0.731801 -0.0259123 1.86062e-013 -4.77083e-015 3.18055e-014 -2.22167 -0.733487 0.20892 -2.03217e-016 0 -3.88251e-019 0.512304 -3.13364 -0.0420886 -0.00562805 0.123099 -0.0495527 -0.492803 3.00963 0.11736 2.03217e-016 0 3.88251e-019 -0.473321 -3.03453 0.0397103 0.00592195 -0.0564347 0.0521747 0.492501 3.09005 -0.118955 
69.7838 83.1666 -149.507 -0.974164 -0.535666 -0.267127 2.21356 1.85493 -0.858567 1.26393 -1.07771 -0.130342 -2.52345 0.249797 -1.08963 1.62755 -0.165051 -1.48993 -0 0 0 -0 0 0 -4.74141e-015 1.98757e-014 3.77419e-015 21.6849 1.00085 -1.33597 -3.98724 -1.76704 6.27622 0.00840966 2.04889 0.287302 3.35845e-011 1.56211e-010 -1.45942e-010 5.68743e-011 2.70799e-010 -2.52398e-010 3.35877e-011 1.56214e-010 -1.4595e-010 7.73091 5.47488 0.417314 3.35834e-011 1.56211e-010 -1.45938e-010 2.90554 0.965183 0.102902 3.35883e-011 1.56211e-010 -1.45938e-010 10.2786 0.731801 0.0259123 3.35793e-011 1.56211e-010 -1.45927e-010 2.22167 -0.733487 -0.20892 -4.81847e-015 1.98839e-014 3.36963e-015 -22.9823 6.26946 -1.27648 4.0847 -1.82955 -6.40866 -0.000769843 0.745023 -0.104701 7.45452e-011 2.55217e-010 1.60929e-010 1.29734e-010 4.41998e-010 2.77817e-010 7.45388e-011 2.55218e-010 1.60933e-010 -7.73091 5.47488 -0.417314 7.45455e-011 2.55216e-010 1.60924e-010 -2.90554 0.965183 -0.102902 7.45401e-011 2.55216e-010 1.60926e-010 -10.2786 0.731801 -0.0259123 7.45524e-011 2.55221e-010 1.60921e-010 -2.22167 -0.733487 0.20892 -2.03217e-016 0 -3.88251e-019 3.22757 -5.9104 2.1369 0.00497776 8.21074 0.0477399 -0.537251 -0.336039 -0.602745 2.03217e-016 0 3.88251e-019 1.36769 -9.58648 0.821481 0.00314641 17.6344 -0.184609 0.466311 2.22065 -0.434459 
69.7526 83.1737 -148.058 -1.98042 -1.10465 -0.534089 4.58143 3.81916 -1.78431 2.59482 -2.20113 -0.273407 -5.17972 0.480094 -2.24474 3.32641 -0.327036 -3.06691 -0 0 0 -0 0 0 -9.82777e-015 4.24691e-014 8.0104e-015 44.663 1.99423 -2.75646 -7.7623 -3.5489 12.8971 -0.0052435 4.24275 0.596197 6.05892e-011 3.32429e-010 -3.05351e-010 1.02265e-010 5.76257e-010 -5.28026e-010 6.0591e-011 3.32432e-010 -3.05358e-010 7.73091 5.47488 0.417314 6.05876e-011 3.3243e-010 -3.05348e-010 2.90554 0.965183 0.102902 6.05929e-011 3.32429e-010 -3.05349e-010 10.2786 0.731801 0.0259123 6.05822e-011 3.3243e-010 -3.05338e-010 2.22167 -0.733487 -0.20892 -9.88372e-015 4.24863e-014 7.5942e-015 -46.9543 12.9087 -2.72529 7.97509 -3.69708 -13.2272 0.00157903 1.48417 -0.208652 1.47539e-010 5.20977e-010 3.26451e-010 2.56795e-010 9.0224e-010 5.63565e-010 1.4753e-010 5.20977e-010 3.26456e-010 -7.73091 5.47488 -0.417314 1.4754e-010 5.20974e-010 3.26448e-010 -2.90554 0.965183 -0.102902 1.47534e-010 5.20975e-010 3.26447e-010 -10.2786 0.731801 -0.0259123 1.47544e-010 5.2098e-010 3.26445e-010 -2.22167 -0.733487 0.20892 -2.03217e-016 0 -3.88251e-019 6.31196 -8.89218 4.46132 -0.0157311 16.7756 0.153832 -0.671724 -3.83436 -1.34793 2.03217e-016 0 3.88251e-019 3.50142 -16.4413 1.67863 0.193476 36.4053 -0.518718 0.425822 1.35272 -0.803886 
69.7 83.1399 -146.629 -2.89857 -1.60688 -0.802333 6.75699 5.5598 -2.58799 3.76279 -3.23308 -0.394033 -7.54186 0.748307 -3.26913 4.85693 -0.493815 -4.46994 -0 0 0 -0 0 0 -1.4321e-014 5.96279e-014 1.0925e-014 65.1946 2.99601 -4.01279 -10.8198 -5.04718 18.8957 -0.036715 6.14604 0.866334 1.00398e-010 4.68583e-010 -4.37888e-010 1.70026e-010 8.12313e-010 -7.57309e-010 1.00399e-010 4.68587e-010 -4.37895e-010 7.73091 5.47488 0.417314 1.00396e-010 4.68584e-010 -4.37885e-010 2.90554 0.965183 0.102902 1.00402e-010 4.68583e-010 -4.37887e-010 10.2786 0.731801 0.0259123 1.0039e-010 4.68585e-010 -4.37878e-010 2.22167 -0.733487 -0.20892 -1.43587e-014 5.96523e-014 1.05065e-014 -68.0694 18.77 -4.02067 11.0476 -5.21454 -19.2992 0.00586432 2.23504 -0.314314 2.23283e-010 7.65669e-010 4.82703e-010 3.88587e-010 1.32603e-009 8.33307e-010 2.23272e-010 7.6567e-010 4.82709e-010 -7.73091 5.47488 -0.417314 2.23284e-010 7.65666e-010 4.82701e-010 -2.90554 0.965183 -0.102902 2.23278e-010 7.65667e-010 4.82699e-010 -10.2786 0.731801 -0.0259123 2.23285e-010 7.65671e-010 4.82699e-010 -2.22167 -0.733487 0.20892 -2.03217e-016 0 -3.88251e-019 9.30169 -11.4023 6.5913 -0.0623301 24.3858 0.26445 -0.879602 -7.02296 -2.05805 2.03217e-016 0 3.88251e-019 5.6261 -22.6731 2.54772 0.669232 53.0116 -1.05073 0.385209 0.481931 -1.06487 
69.5684 82.9435 -145.291 -3.58717 -1.94234 -1.07355 8.32821 6.74667 -3.07567 4.53432 -4.03643 -0.458031 -9.18289 1.11203 -3.96665 5.98181 -0.673639 -5.43805 -0 0 0 -0 0 0 -1.73313e-014 6.31997e-014 1.05356e-014 79.5237 4.02424 -4.85554 -12.8554 -6.06687 23.2781 -0.0662357 7.32353 1.03495 1.72218e-010 5.04577e-010 -5.03246e-010 2.93713e-010 8.74859e-010 -8.70728e-010 1.72219e-010 5.04581e-010 -5.03253e-010 7.73091 5.47488 0.417314 1.72216e-010 5.04579e-010 -5.03243e-010 2.90554 0.965183 0.102902 1.72222e-010 5.04578e-010 -5.03246e-010 10.2786 0.731801 0.0259123 1.72209e-010 5.0458e-010 -5.03237e-010 2.22167 -0.733487 -0.20892 -1.73579e-014 6.32275e-014 1.0138e-014 -82.7336 22.7293 -4.73141 12.934 -6.12563 -23.433 0.0111635 3.01524 -0.42416 3.05901e-010 9.57694e-010 6.15781e-010 5.32208e-010 1.65868e-009 1.06304e-009 3.05889e-010 9.57693e-010 6.15787e-010 -7.73091 5.47488 -0.417314 3.05902e-010 9.57689e-010 6.15781e-010 -2.90554 0.965183 -0.102902 3.05896e-010 9.5769e-010 6.15777e-010 -10.2786 0.731801 -0.0259123 3.05902e-010 9.57695e-010 6.15778e-010 -2.22167 -0.733487 0.20892 -2.03217e-016 0 -3.88251e-019 11.5761 -12.7903 8.14459 -0.112544 29.6095 0.366073 -1.10775 -9.44111 -2.66517 2.03217e-016 0 3.88251e-019 7.34039 -27.3613 3.31455 1.40273 64.2095 -1.79214 0.368466 -0.396221 -1.05515 
69.3936 82.7636 -143.907 -3.95318 -2.05485 -1.35691 8.99737 7.15596 -3.11525 4.76059 -4.55129 -0.441442 -9.82619 1.68096 -4.19615 6.5663 -0.883105 -5.78569 -0 0 0 -0 0 0 -2.02696e-014 4.29724e-014 3.61501e-015 85.1358 5.07433 -5.15688 -13.7733 -6.5636 25.3392 -0.0743789 7.52126 1.06359 3.33038e-010 3.53505e-010 -4.65887e-010 5.72169e-010 6.13446e-010 -8.07225e-010 3.33039e-010 3.5351e-010 -4.65894e-010 7.73091 5.47488 0.417314 3.33036e-010 3.53507e-010 -4.65883e-010 2.90554 0.965183 0.102902 3.33042e-010 3.53506e-010 -4.65887e-010 10.2786 0.731801 0.0259123 3.3303e-010 3.53508e-010 -4.65878e-010 2.22167 -0.733487 -0.20892 -2.02964e-014 4.29974e-014 3.28034e-015 -88.7014 24.0583 -4.43918 13.5068 -6.36324 -24.7931 0.017789 3.92422 -0.552254 4.34915e-010 1.12298e-009 7.39988e-010 7.56089e-010 1.94511e-009 1.27734e-009 4.34904e-010 1.12298e-009 7.39994e-010 -7.73091 5.47488 -0.417314 4.34916e-010 1.12297e-009 7.3999e-010 -2.90554 0.965183 -0.102902 4.34909e-010 1.12297e-009 7.39984e-010 -10.2786 0.731801 -0.0259123 4.34917e-010 1.12298e-009 7.39984e-010 -2.22167 -0.733487 0.20892 -2.03217e-016 0 -3.88251e-019 12.6441 -12.6456 8.85473 -0.133988 31.5217 0.43892 -1.29043 -10.8087 -3.10618 2.03217e-016 0 3.88251e-019 8.29038 -29.9182 3.84622 1.82252 67.9084 -2.21757 0.396917 -1.34897 -0.713543 
